<?xml version="1.0" encoding="utf-8"?>
<!-- Generator: Adobe Illustrator 26.0.3, SVG Export Plug-In . SVG Version: 6.00 Build 0)  -->
<svg version="1.1" id="Layer_2" xmlns="http://www.w3.org/2000/svg" xmlns:xlink="http://www.w3.org/1999/xlink" x="0px" y="0px"
	 viewBox="0 0 3530.9 1974.6" style="enable-background:new 0 0 3530.9 1974.6;" xml:space="preserve">
<style type="text/css">
	.st0{fill:#D5D6DA;}
	.st1{fill:#599DAD;}
	.st2{fill:#6BB7BF;}
	.st3{fill:#EAEAEA;}
	.st4{fill:#00A3FE;}
	.st5{fill:#FFEBDC;}
	.st6{fill:#364154;}
	.st7{fill:#B8C1C9;}
	.st8{fill:#EE6C4D;}
	.st9{fill:#131F2D;}
	.st10{fill:#657285;}
	.st11{fill:url(#SVGID_1_);}
	.st12{fill:#FF7955;}
	.st13{fill:#016EB9;}
	.st14{fill:url(#SVGID_00000161626153032355393020000004437708047288928702_);}
	.st15{fill:url(#SVGID_00000178204472196359890020000007710985043292490165_);}
	.st16{fill:url(#SVGID_00000045616345855382906310000015855654538679769985_);}
</style>
<g>
	<path class="st0" d="M537.3,1467.5c0,0,79.9-93.2,4.9-152.4c0,0-54.8-33.1-99.4-30.5c0,0,63.3,106.1,42.8,116.6
		c-20.5,10.6-62-123.3-62-123.3s-124.6-12.1-164.7,7.2c0,0,106.5,87.2,84.1,92.4c-22.4,5.2-137.5-80.4-137.5-80.4
		s-116,19.7-109.8,90.5c6.2,70.7,46.1,92.6,63.7,90.7c17.6-1.9,120.3-41.1,122.5-26.7c2.2,14.4-59.6,61.4-102.9,63.6
		c0,0,81.8,90.2,136.1,64.1c54.3-26,59-67.3,92.9-82.7c33.9-15.5,62.8-15.4,48.8,0.3c-14,15.8-75.3,31.1-94.7,65.4
		c-19.4,34.3-36.8,57.4,19.5,48.9c56.2-8.5,147.6-49.6,151.6-96.7C537.3,1467.5,537.3,1467.5,537.3,1467.5z"/>
	<g>
		<path class="st0" d="M152.8,1389.6c0,0,315-12.1,384.5,77.9c0,0,15.4,46.1,62.7,88l7.4,20.1c0,0-54.6-57.6-74.1-61
			C533.3,1514.6,563.8,1403,152.8,1389.6z"/>
		<path class="st1" d="M600,1555.6c0,0,67.6,50,72.3,139.3l-12.3,1.1c0,0-21.6-92.4-60.6-128.5C560.4,1531.4,600,1555.6,600,1555.6z
			"/>
	</g>
</g>
<g>
	<path class="st2" d="M816.6,1350.3c0,0-127.1-71.2-67.8-167.7c0,0,47.4-59.3,98.3-74.6c0,0-27.1,144,0,147.4
		c27.1,3.4,18.6-162.7,18.6-162.7s133.9-64.4,186.4-59.3c0,0-83,140.6-55.9,137.2c27.1-3.4,120.3-145.7,120.3-145.7
		s137.2-25.4,159.3,55.9c22,81.3-13.6,122-33.9,127.1c-20.3,5.1-150.8,3.4-147.4,20.3c3.4,16.9,91.5,44.1,140.6,28.8
		c0,0-54.2,133.9-125.4,127.1c-71.2-6.8-93.2-50.8-137.2-54.2c-44.1-3.4-76.2,8.5-54.2,20.3c22,11.9,96.6,3.9,132.2,34.1
		c35.6,30.2,64.4,48.9-1.7,62.4c-66.1,13.6-184.7,5.1-208.4-45.7S816.6,1350.3,816.6,1350.3z"/>
	<g>
		<path class="st2" d="M1213.1,1106.3c0,0-355.8,115.2-396.5,244c0,0,1.7,57.6-33.9,123.7v25.4c0,0,37.3-86.4,57.6-98.3
			C840.3,1401.2,760.7,1289.3,1213.1,1106.3z"/>
		<path class="st2" d="M782.7,1474c0,0-54.9,83.3-23.6,184.8l14.1-3.8c0,0-13.7-111.7,15-167.9C817,1430.9,782.7,1474,782.7,1474z"
			/>
	</g>
</g>
<g>
	<path class="st3" d="M614.5,1252.2c0,0,167.5-93.8,89.3-221.1c0,0-62.5-78.2-129.5-98.3c0,0,35.7,189.9,0,194.3
		c-35.7,4.5-24.6-214.4-24.6-214.4S373.2,827.8,304,834.5c0,0,109.4,185.4,73.7,180.9c-35.7-4.5-158.6-192.1-158.6-192.1
		S38.2,789.8,9.2,897c-29,107.2,17.9,160.8,44.7,167.5c26.8,6.7,198.8,4.5,194.3,26.8c-4.5,22.3-120.6,58.1-185.4,38
		c0,0,71.5,176.4,165.3,167.5c93.8-8.9,122.8-67,180.9-71.5c58.1-4.5,100.5,11.2,71.5,26.8c-29,15.6-127.3,5.1-174.2,45
		c-46.9,39.9-84.9,64.4,2.2,82.3c87.1,17.9,243.5,6.7,274.7-60.3C614.5,1252.2,614.5,1252.2,614.5,1252.2z"/>
	<g>
		<path class="st0" d="M91.8,930.5c0,0,469,151.9,522.6,321.6c0,0-2.2,75.9,44.7,163v33.5c0,0-49.1-113.9-75.9-129.5
			C583.2,1319.2,688.2,1171.8,91.8,930.5z"/>
		<path class="st2" d="M659.1,1415.2c0,0,72.3,109.8,31.1,243.6l-18.6-5c0,0,18.1-147.3-19.8-221.3
			C614,1358.4,659.1,1415.2,659.1,1415.2z"/>
	</g>
</g>
<path class="st4" d="M620.1,1948.7c-181.2,0-328.1-146.9-328.1-328.1h656.3C948.2,1801.8,801.3,1948.7,620.1,1948.7z"/>
<path class="st5" d="M539.4,1946.2c13.3,1.7,27,2.5,40.8,2.5c181.2,0,328.1-146.9,328.1-328.1h-81.5
	C826.7,1788,701.3,1926.1,539.4,1946.2z"/>
<path class="st4" d="M287.4,1965.4h665.3l0,0c0-22.4-18.1-40.5-40.5-40.5H327.9C305.6,1924.9,287.4,1943.1,287.4,1965.4
	L287.4,1965.4z"/>
<rect x="284.5" y="1620.6" transform="matrix(-1 -1.224647e-16 1.224647e-16 -1 1243.5184 3251.2466)" class="st4" width="674.5" height="10.1"/>
<g>
	<path class="st0" d="M2714.9,1211.4c0,0-104-196.2,51.8-270.9c0,0,109.8-36.8,187.5-14.3c0,0-153.8,162.1-121.8,188.9
		c31.9,26.7,158.3-193,158.3-193s224.7,28.1,287.8,78.1c0,0-222.6,111.6-185.1,129.6c37.5,18.1,274.6-87.3,274.6-87.3
		s196.8,80.9,157.8,203.3c-39,122.4-118.2,145.1-148.4,134.8c-30.3-10.3-196-120.3-205.7-95.8c-9.7,24.5,80.8,132.1,156.4,153.1
		c0,0-180.1,126.7-265.7,59.2c-85.6-67.5-77.4-142.1-131-182.9c-53.6-40.8-104.7-52.2-86.3-18.8c18.4,33.4,120.5,84.8,141.1,153
		c20.6,68.2,42.1,115.9-53.8,78.6c-95.9-37.3-240.8-146.1-229.2-230.9C2714.9,1211.4,2714.9,1211.4,2714.9,1211.4z"/>
	<g>
		<path class="st0" d="M3424.5,1226.5c0,0-551.1-146.5-709.6-15.1c0,0-45.4,75.2-145.6,130.5l-21,32.6c0,0,119.2-79.9,155-78.3
			C2703.2,1296.1,2693.6,1087,3424.5,1226.5z"/>
		<path class="st1" d="M2569.2,1341.8c0,0-139.2,61.4-182.9,217.2l21.2,6.8c0,0,74.8-154.5,158-202.7
			C2648.7,1314.8,2569.2,1341.8,2569.2,1341.8z"/>
	</g>
</g>
<g>
	<path class="st3" d="M2106.6,809.3c0,0-308-160.6-173.5-395c0,0,108.9-144.7,229-184.7c0,0-54.4,345.2,10.5,351.4
		c64.9,6.2,32.9-389,32.9-389s314.5-163,440-154.6c0,0-187.9,341.1-123.5,331.1c64.4-10,276.4-355.9,276.4-355.9
		s325.3-70.3,383.6,122c58.3,192.3-23.6,291.7-71.8,305.3c-48.1,13.6-359.2,18.8-349.9,58.9c9.3,40.1,221.2,98.5,337.3,58.7
		c0,0-119.7,322.9-289.8,311.8c-170.1-11.1-225.7-114.5-331-119.5c-105.2-5-181.1,25.6-127.8,52.3c53.3,26.7,230.5,2.4,317.4,72
		c87,69.6,156.9,112,0.4,149c-156.5,37-439.9,25.2-500-94.2C2106.6,809.3,2106.6,809.3,2106.6,809.3z"/>
	<g>
		<path class="st0" d="M3034.3,199.5c0,0-839.9,299.9-927.7,609.7c0,0,8.1,137.2-72,297.2l1.8,60.6c0,0,82.7-208.6,130.3-238.3
			C2166.7,928.7,1969,667.8,3034.3,199.5z"/>
		<path class="st2" d="M2034.6,1106.5c0,0-124.9,202.5-43.1,442.1l33.4-10c0,0-40.6-265.3,23.8-401.3
			C2113.2,1001.2,2034.6,1106.5,2034.6,1106.5z"/>
	</g>
</g>
<polygon class="st6" points="438.1,1965.4 2195.6,1965.4 2563.3,459.2 805.8,459.2 "/>
<polygon class="st7" points="2931.6,1965.4 1174.2,1965.4 806.5,459.2 2563.9,459.2 "/>
<polygon class="st3" points="2811.2,1880.1 1253,1880.1 926.9,544.5 2485.2,544.5 "/>
<polygon class="st4" points="1201.5,902.8 1056.7,902.8 1026.4,778.7 1171.2,778.7 "/>
<polygon class="st4" points="1420.6,902.8 1275.8,902.8 1245.5,778.7 1390.3,778.7 "/>
<polygon class="st4" points="1642.2,902.8 1497.4,902.8 1467.1,778.7 1611.9,778.7 "/>
<polygon class="st4" points="1863.9,902.8 1719.1,902.8 1688.8,778.7 1833.6,778.7 "/>
<polygon class="st8" points="2085.5,902.8 1940.7,902.8 1910.4,778.7 2055.2,778.7 "/>
<polygon class="st4" points="2307.1,902.8 2162.3,902.8 2132,778.7 2276.8,778.7 "/>
<polygon class="st4" points="2528.8,902.8 2384,902.8 2353.7,778.7 2498.5,778.7 "/>
<polygon class="st4" points="1261.9,1122.4 1117.1,1122.4 1086.8,998.3 1231.6,998.3 "/>
<polygon class="st4" points="1481,1122.4 1336.2,1122.4 1305.9,998.3 1450.7,998.3 "/>
<polygon class="st4" points="1702.6,1122.4 1557.8,1122.4 1527.5,998.3 1672.3,998.3 "/>
<polygon class="st4" points="1924.3,1122.4 1779.5,1122.4 1749.2,998.3 1894,998.3 "/>
<polygon class="st4" points="2145.9,1122.4 2001.1,1122.4 1970.8,998.3 2115.6,998.3 "/>
<polygon class="st4" points="2367.5,1122.4 2222.7,1122.4 2192.4,998.3 2337.2,998.3 "/>
<polygon class="st4" points="2589.2,1122.4 2444.4,1122.4 2414.1,998.3 2558.9,998.3 "/>
<polygon class="st4" points="1316.8,1339.2 1172,1339.2 1141.7,1215.1 1286.5,1215.1 "/>
<polygon class="st4" points="1535.9,1339.2 1391.1,1339.2 1360.8,1215.1 1505.6,1215.1 "/>
<polygon class="st4" points="1757.5,1339.2 1612.7,1339.2 1582.4,1215.1 1727.2,1215.1 "/>
<polygon class="st4" points="1979.2,1339.2 1834.4,1339.2 1804.1,1215.1 1948.9,1215.1 "/>
<polygon class="st4" points="2200.8,1339.2 2056,1339.2 2025.7,1215.1 2170.5,1215.1 "/>
<polygon class="st4" points="2422.4,1339.2 2277.6,1339.2 2247.3,1215.1 2392.1,1215.1 "/>
<polygon class="st4" points="2644.1,1339.2 2499.3,1339.2 2469,1215.1 2613.8,1215.1 "/>
<polygon class="st4" points="1371.7,1550.6 1226.9,1550.6 1196.6,1426.5 1341.4,1426.5 "/>
<polygon class="st4" points="1590.8,1550.6 1446,1550.6 1415.7,1426.5 1560.5,1426.5 "/>
<polygon class="st4" points="1812.4,1550.6 1667.6,1550.6 1637.3,1426.5 1782.1,1426.5 "/>
<polygon class="st4" points="2034.1,1550.6 1889.3,1550.6 1859,1426.5 2003.8,1426.5 "/>
<polygon class="st4" points="2255.7,1550.6 2110.9,1550.6 2080.6,1426.5 2225.4,1426.5 "/>
<polygon class="st4" points="2477.3,1550.6 2332.5,1550.6 2302.2,1426.5 2447,1426.5 "/>
<polygon class="st4" points="2699,1550.6 2554.2,1550.6 2523.9,1426.5 2668.7,1426.5 "/>
<polygon class="st4" points="1423.8,1759.2 1279,1759.2 1248.7,1635.1 1393.5,1635.1 "/>
<polygon class="st4" points="1642.9,1759.2 1498.1,1759.2 1467.9,1635.1 1612.7,1635.1 "/>
<polygon class="st4" points="1864.6,1759.2 1719.8,1759.2 1689.5,1635.1 1834.3,1635.1 "/>
<polygon class="st9" points="438.1,1965.4 811.4,1893.8 1174.2,1965.4 "/>
<path class="st9" d="M1117.2,301.7c-88.1,0-160.1,70.5-162.5,158h65.1c2.4-51.7,45.2-92.9,97.5-92.9c53.8,0,97.6,43.8,97.6,97.6
	S1171,562,1117.2,562c-18,0-32.5,14.6-32.5,32.5c0,18,14.6,32.5,32.5,32.5c89.7,0,162.6-73,162.6-162.6
	C1279.8,374.7,1206.9,301.7,1117.2,301.7z"/>
<path class="st9" d="M1529.2,301.7c-88.1,0-160.1,70.5-162.5,158h65.1c2.4-51.7,45.2-92.9,97.5-92.9c53.8,0,97.6,43.8,97.6,97.6
	S1583,562,1529.2,562c-18,0-32.5,14.6-32.5,32.5c0,18,14.6,32.5,32.5,32.5c89.7,0,162.6-73,162.6-162.6
	C1691.9,374.7,1618.9,301.7,1529.2,301.7z"/>
<path class="st9" d="M1941.3,301.7c-88.1,0-160.1,70.5-162.5,158h65.1c2.4-51.7,45.2-92.9,97.5-92.9c53.8,0,97.6,43.8,97.6,97.6
	s-43.8,97.6-97.6,97.6c-18,0-32.5,14.6-32.5,32.5c0,18,14.6,32.5,32.5,32.5c89.7,0,162.6-73,162.6-162.6
	C2103.9,374.7,2031,301.7,1941.3,301.7z"/>
<path class="st9" d="M2353.3,301.7c-88.1,0-160.1,70.5-162.5,158h65.1c2.4-51.7,45.2-92.9,97.5-92.9c53.8,0,97.6,43.8,97.6,97.6
	s-43.8,97.6-97.6,97.6c-18,0-32.5,14.6-32.5,32.5c0,18,14.6,32.5,32.5,32.5c89.7,0,162.6-73,162.6-162.6
	C2516,374.7,2443,301.7,2353.3,301.7z"/>
<polygon class="st10" points="806.5,459.2 811.4,1893.8 438.1,1965.4 "/>
<g>
	<path class="st9" d="M1965.6,983.3c56.2,16.3,113.3,18.4,158.6,10.8c45.7-7.7,76.5-33,84.7-61c7.4-25.4-3.5-53.8-31.4-82.3l0,0
		c26.7,27.3,36.1,58.7,29.5,81.7c-7.4,25.6-36.9,44.5-80.9,51.9c-45.1,7.6-100.8,2.8-156.8-13.5c-56-16.3-105.6-42-139.7-72.6
		c-33.2-29.8-48-61.5-40.6-87.1c7.9-27.1,41-54,86.4-70.3c51.6-18.5,107.6-14.6,160.4,0.7c99.2,28.8,133.7,62.6,161.2,100.5l0,0
		c-27.6-38-58.8-81.1-158.4-110c-53.1-15.4-110.9-13.7-162.8,4.9c-46.4,16.6-80.4,44.8-88.7,73.6c-8.1,28,6.4,60.5,41,91.4
		C1862.1,932.8,1909.5,967,1965.6,983.3z"/>
</g>
<linearGradient id="SVGID_1_" gradientUnits="userSpaceOnUse" x1="2911.8301" y1="1215.8595" x2="2967.2571" y2="1215.8595">
	<stop  offset="0" style="stop-color:#FEBBBA"/>
	<stop  offset="1" style="stop-color:#FF928E"/>
</linearGradient>
<path class="st11" d="M2967.3,1173.9c0,0-4.5,44-9.5,52.3c-5,8.3-26.1,34.9-35.1,40.1c-9,5.2,5.5-35,3.7-42.9
	c-1.8-7.8-7.4,14.3-11.4,14.8c-4,0.5-2.9-19.4-3.1-26.6c-0.1-7.2,19.3-25.1,26.2-40.6C2944.9,1155.7,2967.3,1173.9,2967.3,1173.9z"
	/>
<path class="st12" d="M2426.7,768.1l-10.1-19.1c0,0,5-34-37.6-55.5c0,0-15.6-6.3-24.4,6.4c-8.1,11.7,15.4,9.6,14.2,29.6
	c-1.3,20,8.2,31.7,21.5,38.3l10.9,12.7L2426.7,768.1z"/>
<path class="st13" d="M2829.3,722.5c0,0-36.6,179.5-237.9,238.2c-62.8,18.3-205.6-188.6-205.6-188.6s5-19.1,36.5-14.7
	c0,0,139,92,156.5,102c15.5,8.9,117.6-114,164.2-133.9C2789.5,705.8,2829.3,722.5,2829.3,722.5z"/>
<g>
	
		<rect x="2365.5" y="625.6" transform="matrix(0.1518 -0.9884 0.9884 0.1518 1310.4834 2967.4639)" class="st9" width="37.6" height="189.1"/>
	<polygon class="st12" points="2247.3,699.1 2287.9,724.4 2293.6,687.2 	"/>
	<path class="st12" d="M2500.4,731.6l-1.8,11.8c-1.1,7.2-7.9,12.2-15.1,11.1l-8.6-1.3l5.7-37.2l9.4,1.4
		C2496.8,718.4,2501.5,724.8,2500.4,731.6z"/>
</g>
<g>
	<path class="st9" d="M3069.6,1851.2c0,0,25,22.8,20.1,39c-4.9,16.2-27.4,27-30.5,46.8c-3,19.8-15.2,30.6-26.2,30.6
		c-11,0-52.3,0-52.3,0s-8.1-13.9,11.4-18.1c19.5-4.2,26.8-27.5,25.6-49c-1.2-21.6,1.8-50.4,1.8-50.4l41.4-9.6L3069.6,1851.2z"/>
	<path class="st9" d="M2763.3,1910.1c0,0,4.5,51.9-6.5,57.3l-140.3-0.3c0,0,0-16.2,22.5-19.8c22.5-3.6,62.1-16.8,68.8-46.2
		C2714.5,1871.8,2763.3,1910.1,2763.3,1910.1z"/>
	<path class="st6" d="M2644.8,1177.5c0,0,7.4,90.9,16.1,200.2c11.8,148.5,26,330.8,27.4,365.3c2.4,60,12.2,155.9,12.2,155.9
		s23.1,22.8,69.4,13.2c0,0,41.3-137,53-281.9c0.2-2.4,0.4-4.8,0.5-7.2c11-147.5,28-458.2,28-458.2L2644.8,1177.5z"/>
	<path class="st9" d="M2644.8,1177.5c0,0,7.4,90.9,16.1,200.2l162.1,252.6c0.2-2.4,0.4-4.8,0.5-7.2c11-147.5,28-458.2,28-458.2
		L2644.8,1177.5z"/>
	<path class="st6" d="M2678.6,1188.3c0,0,133.4,329.3,221.1,484c87.7,154.7,115.1,197.9,115.1,197.9s50.2-19.8,54.8-33.3
		c0,0-33.5-298.7-92.3-371.5c-33.2-41.1-72.2-164.6-74-207.8c-1.8-43.2-11.9-128.6-11.9-128.6L2678.6,1188.3z"/>
</g>
<linearGradient id="SVGID_00000137852507937478749280000010030702987273904034_" gradientUnits="userSpaceOnUse" x1="2711.8127" y1="641.6805" x2="2854.0994" y2="641.6805">
	<stop  offset="0" style="stop-color:#FEBBBA"/>
	<stop  offset="1" style="stop-color:#FF928E"/>
</linearGradient>
<path style="fill:url(#SVGID_00000137852507937478749280000010030702987273904034_);" d="M2854.1,680.9c0,0-90.3,43.5-142.3,27.4
	c0,0,12.8-16.2,35.2-28.2c-1.8-10.4-3.2-19.5-4-27.2c-2.2-17.7-2.2-27.8-2.2-27.8l34.8-27.4l33-26.2
	C2806.1,645.2,2854.1,680.9,2854.1,680.9z"/>
<path class="st4" d="M2901.7,1145.8c0.2,5.5-11.6,11.8-16.8,14.2c-38.6,16.9-74.6,28.8-115.5,32.7c-48.2,4.9-105.3-5.9-124.9-5.5
	c-2,0-3.8-0.8-5.4-2.2c-1.4-1-2.4-59.1-1.4-132.2c0-3,0-5.9,0.2-8.9v-1c0.4-28.6,1.4-58.5,2.8-88.5c2.8-65.8,8-129.3,16.8-164.3
	c10.6-41.4,34.6-68.8,56.4-88.7l18-15.8c18,3.5,37,2.6,56-6.7c20.8-10.1,43.2-20.9,46.8-18.1c27.2,19.9,45.6,64.6,55.4,121.8
	c5.6,32.9,8.4,69.8,8.2,108.4c0,14.2-0.4,28.8-1.2,43.2c-4.8,78,0,145.8,2.8,185C2900.9,1130.6,2901.5,1139.5,2901.7,1145.8z"/>
<path class="st13" d="M2900.1,1142.2c-316-0.6-58.3-342.9-58.3-342.9l51.2-16.6c4,35.2,6.1,74.5,5.9,115.8c0,15.2-0.3,30.7-0.9,46.1
	C2894.6,1027.9,2898,1100.3,2900.1,1142.2z"/>
<linearGradient id="SVGID_00000018919052907107114190000003601195054758603197_" gradientUnits="userSpaceOnUse" x1="2740.8315" y1="625.302" x2="2809.271" y2="625.302">
	<stop  offset="0" style="stop-color:#FEBBBA"/>
	<stop  offset="1" style="stop-color:#FF928E"/>
</linearGradient>
<path style="fill:url(#SVGID_00000018919052907107114190000003601195054758603197_);" d="M2809.3,599.7c0,0-22.8,41.6-66.2,53.2
	c-2.2-17.7-2.2-27.8-2.2-27.8l34.8-27.4L2809.3,599.7z"/>
<linearGradient id="SVGID_00000164476579195279292990000013933951475396579460_" gradientUnits="userSpaceOnUse" x1="2708.1533" y1="554.6251" x2="2827.939" y2="554.6251">
	<stop  offset="0" style="stop-color:#FEBBBA"/>
	<stop  offset="1" style="stop-color:#FF928E"/>
</linearGradient>
<path style="fill:url(#SVGID_00000164476579195279292990000013933951475396579460_);" d="M2725,623.9c0,0,86.1,14.1,94.2-38.8
	c8.1-52.9,24.6-86.8-30-98c-54.6-11.2-68.4,7.4-75.5,24.4C2706.6,528.5,2702.8,618.9,2725,623.9z"/>
<path class="st9" d="M2850.4,480.7c0.8-0.9,2.6-1.6,6.6-1.8c0,0-3.2-2-7.5-2.1c-0.8-5.6-3.8-15.5-13.4-17.9c0,0,5.2,2.8,5.8,8.7
	c-11.1-11.4-34.9-19.7-100.9-14.5c-87,6.9-58.3,62.5-47,69.2c11.3,6.6,39.6-11.6,60.6-9.9c21,1.7,25,32,32.1,36.1
	c7.1,4.2,4.3-3.2,13.9-7.5c9.6-4.4,10.5,11.6,7.8,22c-2.8,10.4,10.4,24.1,10.4,24.1s0,0,13.4-14.4c13.4-14.4,26-75.4,19.9-88.4
	C2851.5,483.1,2851,481.9,2850.4,480.7z"/>
<path class="st4" d="M2834.8,660.4c0,0,54.5,25.8,80.6,65.5c40.5,61.5,87.5,285.7,88.3,306.5c0.9,20.8-34.3,167.3-34.3,167.3
	s-35.6-2.3-44.8-20.3c0,0,7.1-150.6,2.6-160.3c-4.5-9.7-148.6-202-132.4-243C2811,734.9,2834.8,660.4,2834.8,660.4z"/>
<path class="st12" d="M2416.5,748.2c0,0,3-11.7-5.2-17c-8.1-5.3-15.6-19.6-19-17.6c-7.1,4,3.9,16.5,1.9,32.1
	C2393.5,751.1,2406.1,765.4,2416.5,748.2z"/>
<path class="st6" d="M140.7,1974.6h3368.8c1.1,0,1.9-0.9,1.9-1.9v-6.5c0-1.1-0.9-1.9-1.9-1.9H140.7c-1.1,0-1.9,0.9-1.9,1.9v6.5
	C138.8,1973.7,139.6,1974.6,140.7,1974.6z"/>
</svg>
